QuixoticSeven-Medium.ufo
<glyph name="quotedbl" format="2">
  <advance width="633"/>
  <unicode hex="0022"/>
  <outline>
    <contour>
      <point x="136.0" y="414.0" type="line" smooth="yes"/>
      <point x="98.0" y="452.0" type="line" smooth="yes"/>
      <point x="98.0" y="710.0" type="line" smooth="yes"/>
      <point x="136.0" y="748.0" type="line" smooth="yes"/>
      <point x="192.0" y="692.0" type="line" smooth="yes"/>
      <point x="192.0" y="470.0" type="line" smooth="yes"/>
    </contour>
    <contour>
      <point x="497.0" y="414.0" type="line" smooth="yes"/>
      <point x="441.0" y="470.0" type="line" smooth="yes"/>
      <point x="441.0" y="692.0" type="line" smooth="yes"/>
      <point x="497.0" y="748.0" type="line" smooth="yes"/>
      <point x="535.0" y="710.0" type="line" smooth="yes"/>
      <point x="535.0" y="452.0" type="line" smooth="yes"/>
    </contour>
  </outline>
</glyph>
<glyph name="comma" format="2">
  <advance width="583"/>
  <unicode hex="002C"/>
  <outline>
    <contour>
      <point x="110.0" y="52.0" type="line" smooth="yes"/>
      <point x="72.0" y="90.0" type="line" smooth="yes"/>
      <point x="72.0" y="348.0" type="line" smooth="yes"/>
      <point x="110.0" y="386.0" type="line" smooth="yes"/>
      <point x="166.0" y="330.0" type="line" smooth="yes"/>
      <point x="166.0" y="108.0" type="line" smooth="yes"/>
    </contour>
  </outline>
</glyph>
<glyph name="hyphen" format="2">
  <advance width="633"/>
  <unicode hex="002D"/>
  <outline>
    <contour>
      <point x="150.0" y="400.0" type="line" smooth="yes"/>
      <point x="197.0" y="447.0" type="line" smooth="yes"/>
      <point x="436.0" y="447.0" type="line" smooth="yes"/>
      <point x="483.0" y="400.0" type="line" smooth="yes"/>
      <point x="436.0" y="353.0" type="line" smooth="yes"/>
      <point x="197.0" y="353.0" type="line" smooth="yes"/>
    </contour>
  </outline>
</glyph>
<glyph name="period" format="2">
  <advance height="970"/>
  <unicode hex="002E"/>
  <outline>
    <contour>
      <point x="-59.0" y="-30.0" type="curve" smooth="yes"/>
      <point x="-59.0" y="2.0"/>
      <point x="-32.0" y="29.0"/>
      <point x="0.0" y="29.0" type="curve" smooth="yes"/>
      <point x="32.0" y="29.0"/>
      <point x="59.0" y="2.0"/>
      <point x="59.0" y="-30.0" type="curve" smooth="yes"/>
      <point x="59.0" y="-62.0"/>
      <point x="32.0" y="-89.0"/>
      <point x="0.0" y="-89.0" type="curve" smooth="yes"/>
      <point x="-32.0" y="-89.0"/>
      <point x="-59.0" y="-62.0"/>
    </contour>
  </outline>
</glyph>
<glyph name="seven" format="2">
  <advance width="633"/>
  <unicode hex="0037"/>
  <outline>
    <contour>
      <point x="497.0" y="52.0" type="line" smooth="yes"/>
      <point x="441.0" y="108.0" type="line" smooth="yes"/>
      <point x="441.0" y="330.0" type="line" smooth="yes"/>
      <point x="497.0" y="386.0" type="line" smooth="yes"/>
      <point x="535.0" y="348.0" type="line" smooth="yes"/>
      <point x="535.0" y="90.0" type="line" smooth="yes"/>
    </contour>
    <contour>
      <point x="497.0" y="414.0" type="line" smooth="yes"/>
      <point x="441.0" y="470.0" type="line" smooth="yes"/>
      <point x="441.0" y="692.0" type="line" smooth="yes"/>
      <point x="497.0" y="748.0" type="line" smooth="yes"/>
      <point x="535.0" y="710.0" type="line" smooth="yes"/>
      <point x="535.0" y="452.0" type="line" smooth="yes"/>
    </contour>
    <contour>
      <point x="483.0" y="762.0" type="line" smooth="yes"/>
      <point x="427.0" y="706.0" type="line" smooth="yes"/>
      <point x="206.0" y="706.0" type="line" smooth="yes"/>
      <point x="150.0" y="762.0" type="line" smooth="yes"/>
      <point x="188.0" y="800.0" type="line" smooth="yes"/>
      <point x="445.0" y="800.0" type="line" smooth="yes"/>
    </contour>
  </outline>
</glyph>
<glyph name="colon" format="2">
  <advance width="211"/>
  <unicode hex="003A"/>
  <outline>
    <contour>
      <point x="46.0" y="240.0" type="curve" smooth="yes"/>
      <point x="46.0" y="272.0"/>
      <point x="73.0" y="299.0"/>
      <point x="105.0" y="299.0" type="curve" smooth="yes"/>
      <point x="137.0" y="299.0"/>
      <point x="164.0" y="272.0"/>
      <point x="164.0" y="240.0" type="curve" smooth="yes"/>
      <point x="164.0" y="208.0"/>
      <point x="137.0" y="181.0"/>
      <point x="105.0" y="181.0" type="curve" smooth="yes"/>
      <point x="73.0" y="181.0"/>
      <point x="46.0" y="208.0"/>
    </contour>
    <contour>
      <point x="46.0" y="560.0" type="curve" smooth="yes"/>
      <point x="46.0" y="592.0"/>
      <point x="73.0" y="619.0"/>
      <point x="105.0" y="619.0" type="curve" smooth="yes"/>
      <point x="137.0" y="619.0"/>
      <point x="164.0" y="592.0"/>
      <point x="164.0" y="560.0" type="curve" smooth="yes"/>
      <point x="164.0" y="528.0"/>
      <point x="137.0" y="501.0"/>
      <point x="105.0" y="501.0" type="curve" smooth="yes"/>
      <point x="73.0" y="501.0"/>
      <point x="46.0" y="528.0"/>
    </contour>
  </outline>
</glyph>
<glyph name="less" format="2">
  <advance width="633"/>
  <unicode hex="003C"/>
  <outline>
    <contour>
      <point x="150.0" y="400.0" type="line" smooth="yes"/>
      <point x="197.0" y="447.0" type="line" smooth="yes"/>
      <point x="436.0" y="447.0" type="line" smooth="yes"/>
      <point x="483.0" y="400.0" type="line" smooth="yes"/>
      <point x="436.0" y="353.0" type="line" smooth="yes"/>
      <point x="197.0" y="353.0" type="line" smooth="yes"/>
    </contour>
    <contour>
      <point x="136.0" y="414.0" type="line" smooth="yes"/>
      <point x="98.0" y="452.0" type="line" smooth="yes"/>
      <point x="98.0" y="710.0" type="line" smooth="yes"/>
      <point x="136.0" y="748.0" type="line" smooth="yes"/>
      <point x="192.0" y="692.0" type="line" smooth="yes"/>
      <point x="192.0" y="470.0" type="line" smooth="yes"/>
    </contour>
    <contour>
      <point x="483.0" y="762.0" type="line" smooth="yes"/>
      <point x="427.0" y="706.0" type="line" smooth="yes"/>
      <point x="206.0" y="706.0" type="line" smooth="yes"/>
      <point x="150.0" y="762.0" type="line" smooth="yes"/>
      <point x="188.0" y="800.0" type="line" smooth="yes"/>
      <point x="445.0" y="800.0" type="line" smooth="yes"/>
    </contour>
  </outline>
</glyph>
<glyph name="A" format="2">
  <advance width="633"/>
  <unicode hex="0041"/>
  <outline>
    <contour>
      <point x="150.0" y="400.0" type="line" smooth="yes"/>
      <point x="197.0" y="447.0" type="line" smooth="yes"/>
      <point x="436.0" y="447.0" type="line" smooth="yes"/>
      <point x="483.0" y="400.0" type="line" smooth="yes"/>
      <point x="436.0" y="353.0" type="line" smooth="yes"/>
      <point x="197.0" y="353.0" type="line" smooth="yes"/>
    </contour>
    <contour>
      <point x="136.0" y="414.0" type="line" smooth="yes"/>
      <point x="98.0" y="452.0" type="line" smooth="yes"/>
      <point x="98.0" y="710.0" type="line" smooth="yes"/>
      <point x="136.0" y="748.0" type="line" smooth="yes"/>
      <point x="192.0" y="692.0" type="line" smooth="yes"/>
      <point x="192.0" y="470.0" type="line" smooth="yes"/>
    </contour>
    <contour>
      <point x="136.0" y="52.0" type="line" smooth="yes"/>
      <point x="98.0" y="90.0" type="line" smooth="yes"/>
      <point x="98.0" y="348.0" type="line" smooth="yes"/>
      <point x="136.0" y="386.0" type="line" smooth="yes"/>
      <point x="192.0" y="330.0" type="line" smooth="yes"/>
      <point x="192.0" y="108.0" type="line" smooth="yes"/>
    </contour>
    <contour>
      <point x="497.0" y="52.0" type="line" smooth="yes"/>
      <point x="441.0" y="108.0" type="line" smooth="yes"/>
      <point x="441.0" y="330.0" type="line" smooth="yes"/>
      <point x="497.0" y="386.0" type="line" smooth="yes"/>
      <point x="535.0" y="348.0" type="line" smooth="yes"/>
      <point x="535.0" y="90.0" type="line" smooth="yes"/>
    </contour>
    <contour>
      <point x="497.0" y="414.0" type="line" smooth="yes"/>
      <point x="441.0" y="470.0" type="line" smooth="yes"/>
      <point x="441.0" y="692.0" type="line" smooth="yes"/>
      <point x="497.0" y="748.0" type="line" smooth="yes"/>
      <point x="535.0" y="710.0" type="line" smooth="yes"/>
      <point x="535.0" y="452.0" type="line" smooth="yes"/>
    </contour>
    <contour>
      <point x="483.0" y="762.0" type="line" smooth="yes"/>
      <point x="427.0" y="706.0" type="line" smooth="yes"/>
      <point x="206.0" y="706.0" type="line" smooth="yes"/>
      <point x="150.0" y="762.0" type="line" smooth="yes"/>
      <point x="188.0" y="800.0" type="line" smooth="yes"/>
      <point x="445.0" y="800.0" type="line" smooth="yes"/>
    </contour>
  </outline>
</glyph>
<glyph name="W" format="2">
  <advance width="633"/>
  <unicode hex="0057"/>
  <outline>
    <contour>
      <point x="136.0" y="52.0" type="line" smooth="yes"/>
      <point x="98.0" y="90.0" type="line" smooth="yes"/>
      <point x="98.0" y="348.0" type="line" smooth="yes"/>
      <point x="136.0" y="386.0" type="line" smooth="yes"/>
      <point x="192.0" y="330.0" type="line" smooth="yes"/>
      <point x="192.0" y="108.0" type="line" smooth="yes"/>
    </contour>
    <contour>
      <point x="150.0" y="38.0" type="line" smooth="yes"/>
      <point x="206.0" y="94.0" type="line" smooth="yes"/>
      <point x="427.0" y="94.0" type="line" smooth="yes"/>
      <point x="483.0" y="38.0" type="line" smooth="yes"/>
      <point x="445.0" y="0.0" type="line" smooth="yes"/>
      <point x="188.0" y="0.0" type="line" smooth="yes"/>
    </contour>
    <contour>
      <point x="497.0" y="52.0" type="line" smooth="yes"/>
      <point x="441.0" y="108.0" type="line" smooth="yes"/>
      <point x="441.0" y="330.0" type="line" smooth="yes"/>
      <point x="497.0" y="386.0" type="line" smooth="yes"/>
      <point x="535.0" y="348.0" type="line" smooth="yes"/>
      <point x="535.0" y="90.0" type="line" smooth="yes"/>
    </contour>
    <contour>
      <point x="483.0" y="762.0" type="line" smooth="yes"/>
      <point x="427.0" y="706.0" type="line" smooth="yes"/>
      <point x="206.0" y="706.0" type="line" smooth="yes"/>
      <point x="150.0" y="762.0" type="line" smooth="yes"/>
      <point x="188.0" y="800.0" type="line" smooth="yes"/>
      <point x="445.0" y="800.0" type="line" smooth="yes"/>
    </contour>
  </outline>
</glyph>
<glyph name="asciicircum" format="2">
  <advance width="583"/>
  <unicode hex="005E"/>
  <outline>
    <contour>
      <point x="110.0" y="414.0" type="line" smooth="yes"/>
      <point x="72.0" y="452.0" type="line" smooth="yes"/>
      <point x="72.0" y="710.0" type="line" smooth="yes"/>
      <point x="110.0" y="748.0" type="line" smooth="yes"/>
      <point x="166.0" y="692.0" type="line" smooth="yes"/>
      <point x="166.0" y="470.0" type="line" smooth="yes"/>
    </contour>
    <contour>
      <point x="473.0" y="414.0" type="line" smooth="yes"/>
      <point x="417.0" y="470.0" type="line" smooth="yes"/>
      <point x="417.0" y="692.0" type="line" smooth="yes"/>
      <point x="473.0" y="748.0" type="line" smooth="yes"/>
      <point x="511.0" y="710.0" type="line" smooth="yes"/>
      <point x="511.0" y="452.0" type="line" smooth="yes"/>
    </contour>
    <contour>
      <point x="459.0" y="762.0" type="line" smooth="yes"/>
      <point x="403.0" y="706.0" type="line" smooth="yes"/>
      <point x="180.0" y="706.0" type="line" smooth="yes"/>
      <point x="124.0" y="762.0" type="line" smooth="yes"/>
      <point x="162.0" y="800.0" type="line" smooth="yes"/>
      <point x="421.0" y="800.0" type="line" smooth="yes"/>
    </contour>
  </outline>
</glyph>
<glyph name="underscore" format="2">
  <advance width="633"/>
  <unicode hex="005F"/>
  <outline>
    <contour>
      <point x="150.0" y="38.0" type="line" smooth="yes"/>
      <point x="206.0" y="94.0" type="line" smooth="yes"/>
      <point x="427.0" y="94.0" type="line" smooth="yes"/>
      <point x="483.0" y="38.0" type="line" smooth="yes"/>
      <point x="445.0" y="0.0" type="line" smooth="yes"/>
      <point x="188.0" y="0.0" type="line" smooth="yes"/>
    </contour>
  </outline>
</glyph>
<glyph name="r" format="2">
  <advance width="633"/>
  <unicode hex="0072"/>
  <outline>
    <contour>
      <point x="150.0" y="400.0" type="line" smooth="yes"/>
      <point x="197.0" y="447.0" type="line" smooth="yes"/>
      <point x="436.0" y="447.0" type="line" smooth="yes"/>
      <point x="483.0" y="400.0" type="line" smooth="yes"/>
      <point x="436.0" y="353.0" type="line" smooth="yes"/>
      <point x="197.0" y="353.0" type="line" smooth="yes"/>
    </contour>
    <contour>
      <point x="136.0" y="52.0" type="line" smooth="yes"/>
      <point x="98.0" y="90.0" type="line" smooth="yes"/>
      <point x="98.0" y="348.0" type="line" smooth="yes"/>
      <point x="136.0" y="386.0" type="line" smooth="yes"/>
      <point x="192.0" y="330.0" type="line" smooth="yes"/>
      <point x="192.0" y="108.0" type="line" smooth="yes"/>
    </contour>
  </outline>
</glyph>
<glyph name="logicalnot" format="2">
  <advance width="583"/>
  <unicode hex="00AC"/>
  <outline>
    <contour>
      <point x="124.0" y="400.0" type="line" smooth="yes"/>
      <point x="171.0" y="447.0" type="line" smooth="yes"/>
      <point x="412.0" y="447.0" type="line" smooth="yes"/>
      <point x="459.0" y="400.0" type="line" smooth="yes"/>
      <point x="412.0" y="353.0" type="line" smooth="yes"/>
      <point x="171.0" y="353.0" type="line" smooth="yes"/>
    </contour>
    <contour>
      <point x="473.0" y="52.0" type="line" smooth="yes"/>
      <point x="417.0" y="108.0" type="line" smooth="yes"/>
      <point x="417.0" y="330.0" type="line" smooth="yes"/>
      <point x="473.0" y="386.0" type="line" smooth="yes"/>
      <point x="511.0" y="348.0" type="line" smooth="yes"/>
      <point x="511.0" y="90.0" type="line" smooth="yes"/>
    </contour>
  </outline>
</glyph>
<glyph name="quoteleft" format="2">
  <advance width="583"/>
  <unicode hex="2018"/>
  <outline>
    <contour>
      <point x="473.0" y="414.0" type="line" smooth="yes"/>
      <point x="417.0" y="470.0" type="line" smooth="yes"/>
      <point x="417.0" y="692.0" type="line" smooth="yes"/>
      <point x="473.0" y="748.0" type="line" smooth="yes"/>
      <point x="511.0" y="710.0" type="line" smooth="yes"/>
      <point x="511.0" y="452.0" type="line" smooth="yes"/>
    </contour>
  </outline>
</glyph>
<glyph name="unie655" format="2">
  <advance width="583"/>
  <unicode hex="E655"/>
  <outline>
    <contour>
      <point x="124.0" y="400.0" type="line" smooth="yes"/>
      <point x="171.0" y="447.0" type="line" smooth="yes"/>
      <point x="412.0" y="447.0" type="line" smooth="yes"/>
      <point x="459.0" y="400.0" type="line" smooth="yes"/>
      <point x="412.0" y="353.0" type="line" smooth="yes"/>
      <point x="171.0" y="353.0" type="line" smooth="yes"/>
    </contour>
    <contour>
      <point x="110.0" y="414.0" type="line" smooth="yes"/>
      <point x="72.0" y="452.0" type="line" smooth="yes"/>
      <point x="72.0" y="710.0" type="line" smooth="yes"/>
      <point x="110.0" y="748.0" type="line" smooth="yes"/>
      <point x="166.0" y="692.0" type="line" smooth="yes"/>
      <point x="166.0" y="470.0" type="line" smooth="yes"/>
    </contour>
    <contour>
      <point x="473.0" y="52.0" type="line" smooth="yes"/>
      <point x="417.0" y="108.0" type="line" smooth="yes"/>
      <point x="417.0" y="330.0" type="line" smooth="yes"/>
      <point x="473.0" y="386.0" type="line" smooth="yes"/>
      <point x="511.0" y="348.0" type="line" smooth="yes"/>
      <point x="511.0" y="90.0" type="line" smooth="yes"/>
    </contour>
    <contour>
      <point x="459.0" y="762.0" type="line" smooth="yes"/>
      <point x="403.0" y="706.0" type="line" smooth="yes"/>
      <point x="180.0" y="706.0" type="line" smooth="yes"/>
      <point x="124.0" y="762.0" type="line" smooth="yes"/>
      <point x="162.0" y="800.0" type="line" smooth="yes"/>
      <point x="421.0" y="800.0" type="line" smooth="yes"/>
    </contour>
  </outline>
</glyph>
<glyph name=".notdef" format="2">
  <advance width="583"/>
  <outline>
    <contour>
      <point x="166.0" y="94.0" type="line" smooth="yes"/>
      <point x="416.0" y="94.0" type="line" smooth="yes"/>
      <point x="416.0" y="706.0" type="line" smooth="yes"/>
      <point x="166.0" y="706.0" type="line" smooth="yes"/>
    </contour>
    <contour>
      <point x="72.0" y="0.0" type="line" smooth="yes"/>
      <point x="72.0" y="800.0" type="line" smooth="yes"/>
      <point x="510.0" y="800.0" type="line" smooth="yes"/>
      <point x="510.0" y="0.0" type="line" smooth="yes"/>
    </contour>
  </outline>
</glyph>
<glyph name="segment-b" format="2">
  <outline>
    <contour>
      <point x="462.0" y="414.0" type="line" smooth="yes"/>
      <point x="406.0" y="470.0" type="line" smooth="yes"/>
      <point x="406.0" y="692.0" type="line" smooth="yes"/>
      <point x="462.0" y="748.0" type="line" smooth="yes"/>
      <point x="500.0" y="710.0" type="line" smooth="yes"/>
      <point x="500.0" y="452.0" type="line" smooth="yes"/>
    </contour>
  </outline>
</glyph>
<glyph name="segment-d" format="2">
  <outline>
    <contour>
      <point x="152.0" y="38.0" type="line" smooth="yes"/>
      <point x="208.0" y="94.0" type="line" smooth="yes"/>
      <point x="392.0" y="94.0" type="line" smooth="yes"/>
      <point x="448.0" y="38.0" type="line" smooth="yes"/>
      <point x="410.0" y="0.0" type="line" smooth="yes"/>
      <point x="190.0" y="0.0" type="line" smooth="yes"/>
    </contour>
  </outline>
</glyph>
<glyph name="segment-f" format="2">
  <outline>
    <contour>
      <point x="138.0" y="414.0" type="line" smooth="yes"/>
      <point x="100.0" y="452.0" type="line" smooth="yes"/>
      <point x="100.0" y="710.0" type="line" smooth="yes"/>
      <point x="138.0" y="748.0" type="line" smooth="yes"/>
      <point x="194.0" y="692.0" type="line" smooth="yes"/>
      <point x="194.0" y="470.0" type="line" smooth="yes"/>
    </contour>
  </outline>
</glyph>
<glyph name="segment-g" format="2">
  <outline>
    <contour>
      <point x="152.0" y="400.0" type="line" smooth="yes"/>
      <point x="199.0" y="447.0" type="line" smooth="yes"/>
      <point x="401.0" y="447.0" type="line" smooth="yes"/>
      <point x="448.0" y="400.0" type="line" smooth="yes"/>
      <point x="401.0" y="353.0" type="line" smooth="yes"/>
      <point x="199.0" y="353.0" type="line" smooth="yes"/>
    </contour>
  </outline>
</glyph>
<glyph name="segment-h" format="2">
  <outline>
    <contour>
      <point x="214.0" y="686.0" type="line" smooth="yes"/>
      <point x="224.0" y="686.0" type="line" smooth="yes"/>
      <point x="233.0" y="660.0" type="line" smooth="yes"/>
      <point x="233.0" y="467.0" type="line" smooth="yes"/>
      <point x="223.0" y="467.0" type="line" smooth="yes"/>
      <point x="214.0" y="493.0" type="line" smooth="yes"/>
    </contour>
  </outline>
</glyph>
<glyph name="segment-i" format="2">
  <outline>
    <contour>
      <point x="253.0" y="686.0" type="line" smooth="yes"/>
      <point x="347.0" y="686.0" type="line" smooth="yes"/>
      <point x="347.0" y="461.0" type="line" smooth="yes"/>
      <point x="300.0" y="414.0" type="line" smooth="yes"/>
      <point x="253.0" y="461.0" type="line" smooth="yes"/>
    </contour>
  </outline>
</glyph>
<glyph name="segment-j" format="2">
  <outline>
    <contour>
      <point x="386.0" y="686.0" type="line" smooth="yes"/>
      <point x="386.0" y="493.0" type="line" smooth="yes"/>
      <point x="377.0" y="467.0" type="line" smooth="yes"/>
      <point x="367.0" y="467.0" type="line" smooth="yes"/>
      <point x="367.0" y="660.0" type="line" smooth="yes"/>
      <point x="376.0" y="686.0" type="line" smooth="yes"/>
    </contour>
  </outline>
</glyph>
<glyph name="segment-k" format="2">
  <advance height="114" width="214"/>
  <outline>
    <contour>
      <point x="214.0" y="114.0" type="line" smooth="yes"/>
      <point x="214.0" y="307.0" type="line" smooth="yes"/>
      <point x="223.0" y="333.0" type="line" smooth="yes"/>
      <point x="233.0" y="333.0" type="line" smooth="yes"/>
      <point x="233.0" y="140.0" type="line" smooth="yes"/>
      <point x="224.0" y="114.0" type="line" smooth="yes"/>
    </contour>
  </outline>
</glyph>
<glyph name="segment-l" format="2">
  <outline>
    <contour>
      <point x="253.0" y="114.0" type="line" smooth="yes"/>
      <point x="253.0" y="339.0" type="line" smooth="yes"/>
      <point x="300.0" y="386.0" type="line" smooth="yes"/>
      <point x="347.0" y="339.0" type="line" smooth="yes"/>
      <point x="347.0" y="114.0" type="line" smooth="yes"/>
    </contour>
  </outline>
</glyph>
<glyph name="segment-m" format="2">
  <outline>
    <contour>
      <point x="386.0" y="114.0" type="line" smooth="yes"/>
      <point x="376.0" y="114.0" type="line" smooth="yes"/>
      <point x="367.0" y="140.0" type="line" smooth="yes"/>
      <point x="367.0" y="333.0" type="line" smooth="yes"/>
      <point x="377.0" y="333.0" type="line" smooth="yes"/>
      <point x="386.0" y="307.0" type="line" smooth="yes"/>
    </contour>
  </outline>
</glyph>
<glyph name="segment-r" format="2">
  <advance width="600"/>
  <outline>
    <contour>
      <point x="541.0" y="0.0" type="curve" smooth="yes"/>
      <point x="541.0" y="32.0"/>
      <point x="568.0" y="59.0"/>
      <point x="600.0" y="59.0" type="curve" smooth="yes"/>
      <point x="632.0" y="59.0"/>
      <point x="659.0" y="32.0"/>
      <point x="659.0" y="0.0" type="curve" smooth="yes"/>
      <point x="659.0" y="-32.0"/>
      <point x="632.0" y="-59.0"/>
      <point x="600.0" y="-59.0" type="curve" smooth="yes"/>
      <point x="568.0" y="-59.0"/>
      <point x="541.0" y="-32.0"/>
    </contour>
  </outline>
</glyph>
<glyph name="segment_c" format="2">
  <outline>
    <contour>
      <point x="497.0" y="52.0" type="line" smooth="yes"/>
      <point x="441.0" y="108.0" type="line" smooth="yes"/>
      <point x="441.0" y="330.0" type="line" smooth="yes"/>
      <point x="497.0" y="386.0" type="line" smooth="yes"/>
      <point x="535.0" y="348.0" type="line" smooth="yes"/>
      <point x="535.0" y="90.0" type="line" smooth="yes"/>
    </contour>
  </outline>
</glyph>
<glyph name="segment_f" format="2">
  <outline>
    <contour>
      <point x="136.0" y="414.0" type="line" smooth="yes"/>
      <point x="98.0" y="452.0" type="line" smooth="yes"/>
      <point x="98.0" y="710.0" type="line" smooth="yes"/>
      <point x="136.0" y="748.0" type="line" smooth="yes"/>
      <point x="192.0" y="692.0" type="line" smooth="yes"/>
      <point x="192.0" y="470.0" type="line" smooth="yes"/>
    </contour>
  </outline>
</glyph>
<glyph name="segment_g" format="2">
  <outline>
    <contour>
      <point x="150.0" y="400.0" type="line" smooth="yes"/>
      <point x="197.0" y="447.0" type="line" smooth="yes"/>
      <point x="436.0" y="447.0" type="line" smooth="yes"/>
      <point x="483.0" y="400.0" type="line" smooth="yes"/>
      <point x="436.0" y="353.0" type="line" smooth="yes"/>
      <point x="197.0" y="353.0" type="line" smooth="yes"/>
    </contour>
  </outline>
</glyph>
<glyph name="segment_h" format="2">
  <outline>
    <contour>
      <point x="212.0" y="686.0" type="line" smooth="yes"/>
      <point x="222.0" y="686.0" type="line" smooth="yes"/>
      <point x="250.0" y="641.0" type="line" smooth="yes"/>
      <point x="250.0" y="467.0" type="line" smooth="yes"/>
      <point x="240.0" y="467.0" type="line" smooth="yes"/>
      <point x="212.0" y="512.0" type="line" smooth="yes"/>
    </contour>
  </outline>
</glyph>
<glyph name="segment_i" format="2">
  <outline>
    <contour>
      <point x="269.0" y="686.0" type="line" smooth="yes"/>
      <point x="363.0" y="686.0" type="line" smooth="yes"/>
      <point x="363.0" y="461.0" type="line" smooth="yes"/>
      <point x="316.0" y="414.0" type="line" smooth="yes"/>
      <point x="269.0" y="461.0" type="line" smooth="yes"/>
    </contour>
  </outline>
</glyph>
<glyph name="segment_j" format="2">
  <outline>
    <contour>
      <point x="421.0" y="686.0" type="line" smooth="yes"/>
      <point x="421.0" y="512.0" type="line" smooth="yes"/>
      <point x="393.0" y="467.0" type="line" smooth="yes"/>
      <point x="383.0" y="467.0" type="line" smooth="yes"/>
      <point x="383.0" y="641.0" type="line" smooth="yes"/>
      <point x="411.0" y="686.0" type="line" smooth="yes"/>
    </contour>
  </outline>
</glyph>
<glyph name="segment_k" format="2">
  <advance height="114" width="212"/>
  <outline>
    <contour>
      <point x="212.0" y="114.0" type="line" smooth="yes"/>
      <point x="212.0" y="288.0" type="line" smooth="yes"/>
      <point x="240.0" y="333.0" type="line" smooth="yes"/>
      <point x="250.0" y="333.0" type="line" smooth="yes"/>
      <point x="250.0" y="159.0" type="line" smooth="yes"/>
      <point x="222.0" y="114.0" type="line" smooth="yes"/>
    </contour>
  </outline>
</glyph>
<glyph name="segment_l" format="2">
  <outline>
    <contour>
      <point x="269.0" y="114.0" type="line" smooth="yes"/>
      <point x="269.0" y="339.0" type="line" smooth="yes"/>
      <point x="316.0" y="386.0" type="line" smooth="yes"/>
      <point x="363.0" y="339.0" type="line" smooth="yes"/>
      <point x="363.0" y="114.0" type="line" smooth="yes"/>
    </contour>
  </outline>
</glyph>
<glyph name="segment_m" format="2">
  <outline>
    <contour>
      <point x="421.0" y="114.0" type="line" smooth="yes"/>
      <point x="411.0" y="114.0" type="line" smooth="yes"/>
      <point x="383.0" y="159.0" type="line" smooth="yes"/>
      <point x="383.0" y="333.0" type="line" smooth="yes"/>
      <point x="393.0" y="333.0" type="line" smooth="yes"/>
      <point x="421.0" y="288.0" type="line" smooth="yes"/>
    </contour>
  </outline>
</glyph>
<glyph name="segment_r" format="2">
  <advance width="633"/>
  <outline>
    <contour>
      <point x="574.0" y="0.0" type="curve" smooth="yes"/>
      <point x="574.0" y="32.0"/>
      <point x="601.0" y="59.0"/>
      <point x="633.0" y="59.0" type="curve" smooth="yes"/>
      <point x="665.0" y="59.0"/>
      <point x="692.0" y="32.0"/>
      <point x="692.0" y="0.0" type="curve" smooth="yes"/>
      <point x="692.0" y="-32.0"/>
      <point x="665.0" y="-59.0"/>
      <point x="633.0" y="-59.0" type="curve" smooth="yes"/>
      <point x="601.0" y="-59.0"/>
      <point x="574.0" y="-32.0"/>
    </contour>
  </outline>
</glyph>
